<svg width="24" height="24" viewBox="0 0 24 24" fill="none" xmlns="http://www.w3.org/2000/svg">
<path d="M3.77762 11.9424C2.8296 10.2893 2.37185 8.93948 2.09584 7.57121C1.68762 5.54758 2.62181 3.57081 4.16938 2.30947C4.82345 1.77638 5.57323 1.95852 5.96 2.6524L6.83318 4.21891C7.52529 5.46057 7.87134 6.08139 7.8027 6.73959C7.73407 7.39779 7.26737 7.93386 6.33397 9.00601L3.77762 11.9424ZM3.77762 11.9424C5.69651 15.2883 8.70784 18.3013 12.0576 20.2224M12.0576 20.2224C13.7107 21.1704 15.0605 21.6282 16.4288 21.9042C18.4524 22.3124 20.4292 21.3782 21.6905 19.8306C22.2236 19.1766 22.0415 18.4268 21.3476 18.04L19.7811 17.1668C18.5394 16.4747 17.9186 16.1287 17.2604 16.1973C16.6022 16.2659 16.0661 16.7326 14.994 17.666L12.0576 20.2224Z" stroke="black" stroke-width="1.5" stroke-linejoin="round"/>
<path d="M14.75 3C14.75 2.58579 14.4142 2.25 14 2.25C13.5858 2.25 13.25 2.58579 13.25 3H14.75ZM13.25 5.8C13.25 6.21421 13.5858 6.55 14 6.55C14.4142 6.55 14.75 6.21421 14.75 5.8H13.25ZM19.4805 5.58111C19.7734 5.28822 19.7734 4.81334 19.4805 4.52045C19.1876 4.22756 18.7128 4.22756 18.4199 4.52045L19.4805 5.58111ZM16.44 6.50035C16.1471 6.79324 16.1471 7.26812 16.44 7.56101C16.7329 7.8539 17.2077 7.8539 17.5006 7.56101L16.44 6.50035ZM21 10.75C21.4142 10.75 21.75 10.4142 21.75 10C21.75 9.58579 21.4142 9.25 21 9.25V10.75ZM18.2 9.25C17.7858 9.25 17.45 9.58579 17.45 10C17.45 10.4142 17.7858 10.75 18.2 10.75V9.25ZM13.25 3V5.8H14.75V3H13.25ZM18.4199 4.52045L16.44 6.50035L17.5006 7.56101L19.4805 5.58111L18.4199 4.52045ZM21 9.25L18.2 9.25V10.75L21 10.75V9.25Z" fill="black"/>
</svg>
