<svg width="42" height="42" viewBox="0 0 42 42" fill="none" xmlns="http://www.w3.org/2000/svg">
<path d="M4.375 21.0005C4.375 13.1634 4.375 9.24484 6.80967 6.81016C9.24435 4.37549 13.1629 4.37549 21 4.37549C28.8371 4.37549 32.7557 4.37549 35.1903 6.81016C37.625 9.24484 37.625 13.1634 37.625 21.0005C37.625 28.8376 37.625 32.7561 35.1903 35.1908C32.7557 37.6255 28.8371 37.6255 21 37.6255C13.1629 37.6255 9.24435 37.6255 6.80967 35.1908C4.375 32.7561 4.375 28.8376 4.375 21.0005Z" stroke="black" stroke-width="2" stroke-linejoin="round"/>
<path d="M28.875 21.0005C28.875 25.3497 25.3492 28.8755 21 28.8755C16.6508 28.8755 13.125 25.3497 13.125 21.0005C13.125 16.6512 16.6508 13.1255 21 13.1255C25.3492 13.1255 28.875 16.6512 28.875 21.0005Z" stroke="black" stroke-width="2"/>
<path d="M30.6387 11.3755L30.623 11.3755" stroke="black" stroke-width="2" stroke-linecap="round" stroke-linejoin="round"/>
</svg>
