<svg width="42" height="42" viewBox="0 0 42 42" fill="none" xmlns="http://www.w3.org/2000/svg">
<path d="M12.25 17.5005L12.25 29.7505" stroke="black" stroke-width="2" stroke-linecap="round" stroke-linejoin="round"/>
<path d="M19.25 22.7505V29.7505M19.25 22.7505C19.25 19.851 21.6005 17.5005 24.5 17.5005C27.3995 17.5005 29.75 19.851 29.75 22.7505V29.7505M19.25 22.7505V17.5005" stroke="black" stroke-width="2" stroke-linecap="round" stroke-linejoin="round"/>
<path d="M12.264 12.2505L12.2483 12.2505" stroke="black" stroke-width="2" stroke-linecap="round" stroke-linejoin="round"/>
<path d="M4.375 21.0005C4.375 13.1634 4.375 9.24484 6.80967 6.81016C9.24435 4.37549 13.1629 4.37549 21 4.37549C28.8371 4.37549 32.7557 4.37549 35.1903 6.81016C37.625 9.24484 37.625 13.1634 37.625 21.0005C37.625 28.8376 37.625 32.7561 35.1903 35.1908C32.7557 37.6255 28.8371 37.6255 21 37.6255C13.1629 37.6255 9.24435 37.6255 6.80967 35.1908C4.375 32.7561 4.375 28.8376 4.375 21.0005Z" stroke="black" stroke-width="2" stroke-linejoin="round"/>
</svg>
