<svg width="42" height="42" viewBox="0 0 42 42" fill="none" xmlns="http://www.w3.org/2000/svg">
<path d="M4.37518 21.0005C4.37518 13.1634 4.37518 9.24484 6.80986 6.81016C9.24453 4.37549 13.1631 4.37549 21.0002 4.37549C28.8373 4.37549 32.7558 4.37549 35.1905 6.81016C37.6252 9.24484 37.6252 13.1634 37.6252 21.0005C37.6252 28.8376 37.6252 32.7561 35.1905 35.1908C32.7558 37.6255 28.8373 37.6255 21.0002 37.6255C13.1631 37.6255 9.24453 37.6255 6.80986 35.1908C4.37518 32.7561 4.37518 28.8376 4.37518 21.0005Z" stroke="black" stroke-width="2" stroke-linecap="round" stroke-linejoin="round"/>
<path d="M12.2502 12.2505V11.2505C11.8747 11.2505 11.5308 11.4609 11.3598 11.7952C11.1889 12.1296 11.2196 12.5315 11.4395 12.836L12.2502 12.2505ZM17.1113 12.2505L17.922 11.665C17.734 11.4047 17.4324 11.2505 17.1113 11.2505V12.2505ZM29.7502 29.7505V30.7505C30.1257 30.7505 30.4696 30.5401 30.6405 30.2057C30.8115 29.8714 30.7807 29.4694 30.5609 29.165L29.7502 29.7505ZM24.8891 29.7505L24.0784 30.336C24.2664 30.5963 24.568 30.7505 24.8891 30.7505V29.7505ZM11.5431 29.0434C11.1526 29.4339 11.1526 30.0671 11.5431 30.4576C11.9336 30.8481 12.5668 30.8481 12.9573 30.4576L11.5431 29.0434ZM30.4573 12.9576C30.8478 12.5671 30.8478 11.9339 30.4573 11.5434C30.0668 11.1529 29.4336 11.1529 29.0431 11.5434L30.4573 12.9576ZM22.4115 19.5892L21.6008 20.1747L21.6008 20.1747L22.4115 19.5892ZM19.5889 22.4118L20.3996 21.8263L20.3996 21.8263L19.5889 22.4118ZM12.2502 13.2505H17.1113V11.2505H12.2502V13.2505ZM29.7502 28.7505H24.8891V30.7505H29.7502V28.7505ZM23.1186 20.2963L30.4573 12.9576L29.0431 11.5434L21.7044 18.8821L23.1186 20.2963ZM16.3006 12.836L21.6008 20.1747L23.2222 19.0037L17.922 11.665L16.3006 12.836ZM21.6008 20.1747L28.9395 30.336L30.5609 29.165L23.2222 19.0037L21.6008 20.1747ZM12.9573 30.4576L20.296 23.1189L18.8818 21.7047L11.5431 29.0434L12.9573 30.4576ZM25.6998 29.165L20.3996 21.8263L18.7782 22.9973L24.0784 30.336L25.6998 29.165ZM20.3996 21.8263L13.0609 11.665L11.4395 12.836L18.7782 22.9973L20.3996 21.8263Z" fill="black"/>
</svg>
