<svg width="40" height="41" viewBox="0 0 40 41" fill="none" xmlns="http://www.w3.org/2000/svg">
<path d="M22.5422 7.34373C22.5846 7.18509 22.6579 7.03637 22.7578 6.90606C22.8578 6.77575 22.9824 6.6664 23.1246 6.58427C23.2668 6.50215 23.4238 6.44884 23.5866 6.42741C23.7494 6.40597 23.9148 6.41683 24.0735 6.45935C26.3907 7.06396 28.505 8.27536 30.1984 9.96878C31.8918 11.6622 33.1032 13.7764 33.7078 16.0937C33.7504 16.2523 33.7612 16.4178 33.7398 16.5806C33.7183 16.7434 33.665 16.9004 33.5829 17.0426C33.5008 17.1848 33.3914 17.3094 33.2611 17.4093C33.1308 17.5093 32.9821 17.5825 32.8235 17.625C32.7179 17.6527 32.6092 17.6669 32.5 17.6672C32.2246 17.6672 31.9568 17.5762 31.7384 17.4083C31.52 17.2405 31.3631 17.0052 31.2922 16.739C30.7991 14.8474 29.8104 13.1214 28.4281 11.7391C27.0458 10.3568 25.3198 9.36808 23.4281 8.87498C23.2694 8.83271 23.1205 8.75956 22.99 8.6597C22.8595 8.55985 22.75 8.43525 22.6677 8.29303C22.5854 8.15081 22.532 7.99376 22.5104 7.83087C22.4889 7.66798 22.4997 7.50244 22.5422 7.34373ZM22.1781 13.875C24.3328 14.45 25.7172 15.8344 26.2922 17.989C26.3631 18.2552 26.52 18.4905 26.7384 18.6583C26.9568 18.8262 27.2246 18.9172 27.5 18.9172C27.6092 18.9169 27.7179 18.9027 27.8235 18.875C27.9821 18.8325 28.1308 18.7593 28.2611 18.6593C28.3914 18.5594 28.5008 18.4348 28.5829 18.2926C28.665 18.1504 28.7183 17.9934 28.7398 17.8306C28.7612 17.6678 28.7504 17.5023 28.7078 17.3437C27.9078 14.35 25.8172 12.2594 22.8235 11.4594C22.5031 11.3738 22.1619 11.419 21.8749 11.585C21.5879 11.751 21.3786 12.0242 21.293 12.3445C21.2074 12.6648 21.2526 13.006 21.4186 13.2931C21.5846 13.5801 21.8578 13.7894 22.1781 13.875ZM34.9813 28.7734C34.7027 30.8906 33.6629 32.8341 32.0561 34.2407C30.4494 35.6473 28.3855 36.421 26.25 36.4172C13.8438 36.4172 3.75001 26.3234 3.75001 13.9172C3.74619 11.7817 4.51984 9.71782 5.92647 8.11106C7.33311 6.5043 9.27653 5.46452 11.3938 5.18591C11.9292 5.12054 12.4713 5.23007 12.9394 5.49816C13.4074 5.76625 13.7762 6.17852 13.9906 6.67341L17.2906 14.0406V14.0594C17.4548 14.4382 17.5227 14.8518 17.488 15.2632C17.4534 15.6747 17.3174 16.0711 17.0922 16.4172C17.0641 16.4594 17.0344 16.4984 17.0031 16.5375L13.75 20.3937C14.9203 22.7719 17.4078 25.2375 19.8172 26.4109L23.6203 23.175C23.6577 23.1436 23.6968 23.1144 23.7375 23.0875C24.0833 22.8569 24.4811 22.7161 24.895 22.6779C25.3088 22.6397 25.7257 22.7053 26.1078 22.8687L26.1281 22.8781L33.4891 26.1765C33.9848 26.3902 34.3981 26.7587 34.6671 27.2268C34.9361 27.6949 35.0463 28.2375 34.9813 28.7734ZM32.5 28.4609C32.5 28.4609 32.4891 28.4609 32.4828 28.4609L25.1391 25.1719L21.3344 28.4078C21.2975 28.4391 21.2589 28.4683 21.2188 28.4953C20.859 28.7353 20.4431 28.8779 20.0118 28.9091C19.5805 28.9403 19.1484 28.8591 18.7578 28.6734C15.8313 27.2594 12.9141 24.364 11.4985 21.4687C11.311 21.081 11.2269 20.6514 11.2543 20.2216C11.2816 19.7918 11.4196 19.3764 11.6547 19.0156C11.6812 18.9732 11.711 18.933 11.7438 18.8953L15 15.0344L11.7188 7.6906C11.7181 7.68437 11.7181 7.67809 11.7188 7.67185C10.2035 7.86951 8.81232 8.61273 7.80566 9.76234C6.79899 10.912 6.24592 12.3891 6.25001 13.9172C6.2558 19.2197 8.3648 24.3034 12.1143 28.0529C15.8637 31.8024 20.9475 33.9114 26.25 33.9172C27.7771 33.9224 29.2539 33.3713 30.4042 32.3668C31.5544 31.3623 32.2995 29.9733 32.5 28.4594V28.4609Z" fill="black"/>
</svg>
