<svg width="40" height="41" viewBox="0 0 40 41" fill="none" xmlns="http://www.w3.org/2000/svg">
<path d="M31.25 35.8335H23.5219C24.8201 34.6743 26.0444 33.4349 27.1875 32.1226C31.4766 27.1897 33.75 21.9897 33.75 17.0835C33.75 13.4368 32.3013 9.9394 29.7227 7.36078C27.1441 4.78215 23.6467 3.3335 20 3.3335C16.3533 3.3335 12.8559 4.78215 10.2773 7.36078C7.69866 9.9394 6.25 13.4368 6.25 17.0835C6.25 21.9897 8.51719 27.1897 12.8125 32.1226C13.9556 33.4349 15.1799 34.6743 16.4781 35.8335H8.75C8.41848 35.8335 8.10054 35.9652 7.86612 36.1996C7.6317 36.434 7.5 36.752 7.5 37.0835C7.5 37.415 7.6317 37.733 7.86612 37.9674C8.10054 38.2018 8.41848 38.3335 8.75 38.3335H31.25C31.5815 38.3335 31.8995 38.2018 32.1339 37.9674C32.3683 37.733 32.5 37.415 32.5 37.0835C32.5 36.752 32.3683 36.434 32.1339 36.1996C31.8995 35.9652 31.5815 35.8335 31.25 35.8335ZM8.75 17.0835C8.75 14.0998 9.93526 11.2383 12.045 9.12854C14.1548 7.01876 17.0163 5.8335 20 5.8335C22.9837 5.8335 25.8452 7.01876 27.955 9.12854C30.0647 11.2383 31.25 14.0998 31.25 17.0835C31.25 26.0257 22.5828 33.4897 20 35.521C17.4172 33.4897 8.75 26.0257 8.75 17.0835ZM26.25 17.0835C26.25 15.8474 25.8834 14.639 25.1967 13.6112C24.5099 12.5834 23.5338 11.7823 22.3918 11.3092C21.2497 10.8362 19.9931 10.7124 18.7807 10.9536C17.5683 11.1947 16.4547 11.79 15.5806 12.6641C14.7065 13.5382 14.1112 14.6518 13.8701 15.8642C13.6289 17.0766 13.7527 18.3332 14.2258 19.4753C14.6988 20.6173 15.4999 21.5934 16.5277 22.2802C17.5555 22.9669 18.7639 23.3335 20 23.3335C21.6576 23.3335 23.2473 22.675 24.4194 21.5029C25.5915 20.3308 26.25 18.7411 26.25 17.0835ZM16.25 17.0835C16.25 16.3418 16.4699 15.6168 16.882 15.0001C17.294 14.3834 17.8797 13.9028 18.5649 13.6189C19.2502 13.3351 20.0042 13.2609 20.7316 13.4056C21.459 13.5502 22.1272 13.9074 22.6517 14.4318C23.1761 14.9563 23.5333 15.6245 23.6779 16.3519C23.8226 17.0793 23.7484 17.8333 23.4645 18.5186C23.1807 19.2038 22.7001 19.7895 22.0834 20.2015C21.4667 20.6136 20.7417 20.8335 20 20.8335C19.0054 20.8335 18.0516 20.4384 17.3483 19.7351C16.6451 19.0319 16.25 18.0781 16.25 17.0835Z" fill="black"/>
</svg>
