<svg width="40" height="41" viewBox="0 0 40 41" fill="none" xmlns="http://www.w3.org/2000/svg">
<path d="M35.6938 14.4592L20.6938 4.45921C20.4883 4.32216 20.2469 4.24902 20 4.24902C19.7531 4.24902 19.5117 4.32216 19.3062 4.45921L4.30625 14.4592C4.13502 14.5735 3.99465 14.7282 3.89761 14.9098C3.80057 15.0913 3.74987 15.294 3.75 15.4998V31.7498C3.75 32.4129 4.01339 33.0488 4.48223 33.5176C4.95107 33.9864 5.58696 34.2498 6.25 34.2498H33.75C34.413 34.2498 35.0489 33.9864 35.5178 33.5176C35.9866 33.0488 36.25 32.4129 36.25 31.7498V15.4998C36.2501 15.294 36.1994 15.0913 36.1024 14.9098C36.0054 14.7282 35.865 14.5735 35.6938 14.4592ZM15.1125 24.2498L6.25 30.4998V17.9264L15.1125 24.2498ZM17.6703 25.4998H22.3297L31.1781 31.7498H8.82187L17.6703 25.4998ZM24.8875 24.2498L33.75 17.9264V30.4998L24.8875 24.2498ZM20 7.0014L32.7984 15.5342L22.3297 22.9998H17.6734L7.20469 15.5342L20 7.0014Z" fill="#000"/>
</svg>
