<?xml version="1.0" ?><svg viewBox="0 0 64 64" xmlns="http://www.w3.org/2000/svg"><defs><style>.cls-1,.cls-3{fill:none;}.cls-1,.cls-2,.cls-3{stroke:#000;stroke-linejoin:round;stroke-width:2px;}.cls-1{stroke-linecap:round;}.cls-2{fill:#ffce56;}</style></defs><g id="car-location"><circle cx="24.0821" cy="11.0978" r="1.0691"/><path class="cls-1" d="M16.4805,56.3975v.9631A1.6394,1.6394,0,0,1,14.8411,59H9.12a1.6394,1.6394,0,0,1-1.6395-1.6394v-1.33"/><path class="cls-1" d="M11.4805,36l.0341-4H6.8512A2.3317,2.3317,0,0,0,4.52,34.3317V37h4.961s-3,4.3431-3,6v11.2A1.8,1.8,0,0,0,8.28,56H23.07"/><polygon class="cls-1" points="11.993 45 15.49 49 24.481 49 24.481 45 11.993 45"/><line class="cls-2" x1="15.9878" x2="19.4854" y1="45" y2="49"/><rect class="cls-1" height="6" width="5" x="27.4805" y="45"/><path class="cls-1" d="M32.5,22H17.3043a3.4929,3.4929,0,0,0-3.4154,2.7611L11.4805,36,9.879,43.2071A1.4732,1.4732,0,0,0,11.3172,45H32.4805"/><polyline class="cls-1" points="32.481 58 23.481 58 23.481 54 32.481 54"/><polyline class="cls-1" points="32.5 34 14.481 34 16.481 25 32.5 25"/><line class="cls-1" x1="9.4805" x2="9.4805" y1="10.463" y2="11.8778"/><line class="cls-1" x1="9.4805" x2="9.4805" y1="16.1222" y2="17.537"/><line class="cls-1" x1="5.9435" x2="7.3583" y1="14" y2="14"/><line class="cls-1" x1="11.6027" x2="13.0175" y1="14" y2="14"/><path class="cls-1" d="M40.163,6H56.837A3.163,3.163,0,0,1,60,9.163V42.8369A3.1631,3.1631,0,0,1,56.8369,46H40.163A3.163,3.163,0,0,1,37,42.837V9.163A3.163,3.163,0,0,1,40.163,6Z"/><line class="cls-1" x1="47" x2="51" y1="43" y2="43"/><path class="cls-1" d="M48.5,12A6.4092,6.4092,0,0,0,42,18.3143C42,23.1714,47,29,48.5,29S55,23.1714,55,18.3143A6.4092,6.4092,0,0,0,48.5,12Zm0,9A2.5,2.5,0,1,1,51,18.5,2.5,2.5,0,0,1,48.5,21Z"/><line class="cls-3" x1="37" x2="60" y1="40" y2="40"/></g></svg>