<svg width="23" height="22" viewBox="0 0 23 22" fill="none" xmlns="http://www.w3.org/2000/svg">
<path d="M7.41821 15L16.1383 14.2733C18.8668 14.046 19.4793 13.45 19.7817 10.7289L20.4182 5" stroke="black" stroke-width="1.5" stroke-linecap="round"/>
<path d="M5.41821 5H21.4182" stroke="black" stroke-width="1.5" stroke-linecap="round"/>
<circle cx="5.41821" cy="19" r="2" stroke="black" stroke-width="1.5"/>
<circle cx="16.4182" cy="19" r="2" stroke="black" stroke-width="1.5"/>
<path d="M7.41821 19L14.4182 19" stroke="black" stroke-width="1.5" stroke-linecap="round"/>
<path d="M7.35673 14.0765L6.63039 14.2634L7.35673 14.0765ZM4.38147 2.51493L5.10781 2.32801L4.38147 2.51493ZM1.41821 0.25C1.004 0.25 0.668213 0.585786 0.668213 1C0.668213 1.41421 1.004 1.75 1.41821 1.75V0.25ZM7.00645 15.7616L6.41279 15.3032L7.00645 15.7616ZM5.45668 16.5417C5.20355 16.8695 5.26415 17.3405 5.59202 17.5937C5.91989 17.8468 6.39089 17.7862 6.64401 17.4583L5.45668 16.5417ZM8.08306 13.8896L5.10781 2.32801L3.65514 2.70184L6.63039 14.2634L8.08306 13.8896ZM2.38422 0.25H1.41821V1.75H2.38422V0.25ZM5.10781 2.32801C4.7901 1.09343 3.6577 0.25 2.38422 0.25V1.75C3.0001 1.75 3.51461 2.15576 3.65514 2.70184L5.10781 2.32801ZM6.41279 15.3032L5.45668 16.5417L6.64401 17.4583L7.60012 16.2199L6.41279 15.3032ZM6.63039 14.2634C6.7225 14.6213 6.64486 15.0026 6.41279 15.3032L7.60012 16.2199C8.11197 15.5569 8.29167 14.7002 8.08306 13.8896L6.63039 14.2634Z" fill="black"/>
</svg>
