<svg width="73" height="72" viewBox="0 0 73 72" fill="none" xmlns="http://www.w3.org/2000/svg">
<path d="M10.058 45.2521C12.1387 40.8797 13.1791 38.6935 14.9919 37.4295C15.1383 37.3274 15.2878 37.2303 15.4402 37.1384C17.3269 36 19.6346 36 24.25 36C28.8654 36 31.1731 36 33.0599 37.1384C33.2122 37.2303 33.3617 37.3274 33.5081 37.4295C35.3209 38.6935 36.3613 40.8797 38.442 45.2521C41.5444 51.7717 43.0956 55.0314 41.7798 57.4274C41.7305 57.5172 41.6786 57.6054 41.6242 57.6919C40.1731 60 36.7341 60 29.856 60L18.644 60C11.7659 60 8.32693 60 6.87576 57.6919C6.82139 57.6054 6.76952 57.5172 6.72022 57.4274C5.40442 55.0314 6.95562 51.7717 10.058 45.2521Z" stroke="black" stroke-width="3"/>
<path d="M43.8906 36.062C45.0797 36 46.4975 36 48.2468 36C52.8623 36 55.17 36 57.0567 37.1384C57.209 37.2303 57.3585 37.3274 57.505 37.4295C59.3178 38.6935 60.3581 40.8797 62.4388 45.2521C65.5412 51.7717 67.0924 55.0314 65.7766 57.4274C65.7273 57.5172 65.6754 57.6054 65.6211 57.6919C64.1699 60 60.7309 60 53.8528 60H50.4673" stroke="black" stroke-width="3" stroke-linecap="round"/>
<path d="M53.072 27C52.4227 25.4146 51.5273 23.5328 50.442 21.2521C48.3613 16.8797 47.321 14.6935 45.5081 13.4295C45.3617 13.3274 45.2122 13.2303 45.0598 13.1384C43.1731 12 40.8654 12 36.25 12C31.6346 12 29.3269 12 27.4402 13.1384C27.2878 13.2303 27.1383 13.3274 26.9919 13.4295C25.1791 14.6935 24.1387 16.8797 22.058 21.2521C20.9727 23.5328 20.0773 25.4146 19.428 27" stroke="black" stroke-width="3" stroke-linecap="round"/>
</svg>
