<svg width="80" height="80" viewBox="0 0 80 80" fill="none" xmlns="http://www.w3.org/2000/svg">
<path d="M56.6667 36.0148C56.6667 34.8628 56.6667 34.2868 56.8402 33.7732C57.3442 32.2815 58.6726 31.7025 60.0036 31.0963C61.5 30.4147 62.2481 30.074 62.9895 30.014C63.831 29.9459 64.6741 30.1273 65.3934 30.531C66.3469 31.0661 67.0121 32.0831 67.6929 32.9101C70.8375 36.7295 72.4098 38.6392 72.9851 40.7452C73.4494 42.4447 73.4494 44.222 72.9851 45.9215C72.146 48.9931 69.4949 51.5679 67.5326 53.9513C66.5289 55.1705 66.027 55.7801 65.3934 56.1357C64.6741 56.5394 63.831 56.7207 62.9895 56.6527C62.2481 56.5927 61.5 56.2519 60.0036 55.5704C58.6726 54.9641 57.3442 54.3852 56.8402 52.8934C56.6667 52.3799 56.6667 51.8039 56.6667 50.6518V36.0148Z" stroke="black" stroke-width="4"/>
<path d="M23.3333 36.0144C23.3333 34.5636 23.2926 33.2597 22.1197 32.2397C21.6931 31.8687 21.1275 31.6111 19.9964 31.0958C18.5 30.4143 17.7519 30.0735 17.0105 30.0136C14.7864 29.8337 13.5897 31.3517 12.3071 32.9096C9.16251 36.7291 7.59022 38.6388 7.01489 40.7448C6.5506 42.4443 6.5506 44.2215 7.01489 45.9211C7.85402 48.9927 10.5051 51.5674 12.4674 53.9509C13.7043 55.4533 14.8859 56.8241 17.0105 56.6522C17.7519 56.5923 18.5 56.2515 19.9964 55.57C21.1275 55.0548 21.6931 54.7971 22.1197 54.4261C23.2926 53.4061 23.3333 52.1022 23.3333 50.6514V36.0144Z" stroke="black" stroke-width="4"/>
<path d="M16.6667 30C16.6667 18.9543 27.1134 10 40 10C52.8866 10 63.3333 18.9543 63.3333 30" stroke="black" stroke-width="4" stroke-linecap="square" stroke-linejoin="round"/>
<path d="M65.3333 56.6665C65.3333 55.5619 64.4379 54.6665 63.3333 54.6665C62.2288 54.6665 61.3333 55.5619 61.3333 56.6665H65.3333ZM43.3333 67.9998C42.2288 67.9998 41.3333 68.8953 41.3333 69.9998C41.3333 71.1044 42.2288 71.9998 43.3333 71.9998V67.9998ZM61.3333 56.6665V59.3332H65.3333V56.6665H61.3333ZM50 67.9998H43.3333V71.9998H50V67.9998ZM61.3333 59.3332C61.3333 63.7262 56.6988 67.9998 50 67.9998V71.9998C58.0288 71.9998 65.3333 66.7222 65.3333 59.3332H61.3333Z" fill="black"/>
</svg>
