<svg width="232" height="198" fill="none" xmlns="http://www.w3.org/2000/svg"><path d="M28.643 198h174.839c7.581-.046 14.838-3.541 20.183-9.722 5.345-6.181 8.342-14.544 8.335-23.259V32.751c-.039-8.677-3.058-16.985-8.398-23.118C218.262 3.5 211.031.037 203.482 0h-37.95c-.405 0-.793.185-1.079.514a1.896 1.896 0 0 0-.447 1.24c0 .465.161.911.447 1.24.286.33.674.514 1.079.514h37.95c6.785.008 13.29 3.11 18.088 8.624 4.798 5.515 7.496 12.992 7.503 20.791v132.269c-.007 7.799-2.705 15.276-7.503 20.791-4.798 5.515-11.303 8.616-18.088 8.624H28.643c-3.372-.004-6.71-.773-9.824-2.263-3.113-1.491-5.94-3.673-8.317-6.422-2.378-2.749-4.26-6.011-5.538-9.598a33.32 33.32 0 0 1-1.912-11.305V95.965c0-.465-.16-.912-.447-1.24a1.433 1.433 0 0 0-1.079-.514c-.405 0-.793.185-1.08.514A1.895 1.895 0 0 0 0 95.965v69.054c0 8.737 3.016 17.117 8.386 23.301 5.37 6.183 12.656 9.665 20.258 9.68z" fill="url(#a)"/><defs><linearGradient id="a" x1="116.004" y1="-14.505" x2="116.004" y2="252.145" gradientUnits="userSpaceOnUse"><stop stop-color="#77CFC9"/><stop offset="1" stop-color="#77CFC9"/></linearGradient></defs></svg>