<svg width="319" height="194" viewBox="0 0 319 194" fill="none" xmlns="http://www.w3.org/2000/svg">
<g opacity="0.12">
<path fill-rule="evenodd" clip-rule="evenodd" d="M231.073 139.551C145.226 254.014 18.0281 161.872 0.000167847 100.634C7.57236 120.773 20.5883 138.413 37.5968 151.589C54.6054 164.766 74.9394 172.96 96.3314 175.26C117.723 177.559 139.334 173.873 158.754 164.613C178.174 155.352 194.642 140.88 206.321 122.811L214.905 128.677L231.073 139.551Z" fill="url(#paint0_linear_38_983)"/>
<path fill-rule="evenodd" clip-rule="evenodd" d="M310.625 1.05102C302.183 -4.67214 287.589 13.7851 272.995 36.8208L217.624 33.6735C211.471 33.6735 208.752 31.8134 204.746 37.2505C203.76 38.3678 203.028 39.6852 202.6 41.113C199.167 50.5562 206.893 50.2702 215.191 52.8456C230.93 57.5672 248.529 62.0031 253.68 69.4433C249.244 77.3126 245.094 84.6094 241.518 90.6187C237.941 96.628 237.654 100.777 228.926 98.4879C223.776 97.3432 218.625 94.9109 216.05 98.4879C215.511 99.2854 215.135 100.182 214.944 101.125C214.753 102.068 214.751 103.04 214.937 103.984C215.123 104.929 215.494 105.827 216.029 106.627C216.564 107.427 217.252 108.113 218.053 108.647L231.359 117.803L244.809 126.817C245.606 127.356 246.502 127.732 247.445 127.923C248.389 128.114 249.36 128.116 250.305 127.93C251.249 127.744 252.147 127.373 252.947 126.838C253.747 126.303 254.434 125.616 254.967 124.815C257.542 121.095 253.536 117.088 250.388 112.796C245.094 105.499 248.099 104.64 253.107 98.4879C258.115 92.3354 262.693 86.3257 268.273 79.3149C277.144 81.318 287.732 96.056 298.034 108.79C303.471 115.658 306.047 123.097 313.63 116.23C314.758 115.242 315.724 114.083 316.492 112.796C319.783 107.073 317.349 105.07 314.774 99.4895L291.31 49.2686C307.334 27.2344 318.924 6.34509 310.625 1.19424V1.05102Z" fill="#005373"/>
</g>
<defs>
<linearGradient id="paint0_linear_38_983" x1="19.0002" y1="172.5" x2="208" y2="125.5" gradientUnits="userSpaceOnUse">
<stop stop-color="#005373"/>
<stop offset="1" stop-color="#005373"/>
</linearGradient>
</defs>
</svg>
