<svg width="56" height="56" viewBox="0 0 56 56" fill="none" xmlns="http://www.w3.org/2000/svg">
<path d="M28 50.75C17.5505 50.75 12.3258 50.75 9.07958 47.5038C5.83334 44.2575 5.83334 39.0328 5.83334 28.5833C5.83334 18.1339 5.83334 12.9091 9.07958 9.6629C12.3258 6.41667 17.5505 6.41667 28 6.41667C38.4495 6.41667 43.6742 6.41667 46.9204 9.6629C50.1667 12.9091 50.1667 18.1339 50.1667 28.5833C50.1667 39.0328 50.1667 44.2575 46.9204 47.5038C43.6742 50.75 38.4495 50.75 28 50.75Z" stroke="black" stroke-width="1.5"/>
<path d="M23.3333 39.6667L31.7975 29.4577C32.3769 28.7588 32.6667 28.4093 32.6667 28.0001C32.6667 27.5908 32.3769 27.2414 31.7975 26.5425L23.3333 16.3334" stroke="black" stroke-width="1.5" stroke-linecap="round" stroke-linejoin="round"/>
</svg>
