<svg width="25" height="25" viewBox="0 0 25 25" fill="none" xmlns="http://www.w3.org/2000/svg">
<path d="M21.8113 3.18851C21.6227 3.00001 21.3872 2.8652 21.1292 2.79797C20.8711 2.73074 20.5998 2.73351 20.3432 2.80601H20.3291L2.33473 8.26601C2.0426 8.3502 1.78295 8.52117 1.59019 8.75627C1.39742 8.99136 1.28065 9.27948 1.25533 9.58245C1.23002 9.88541 1.29736 10.1889 1.44844 10.4527C1.59951 10.7166 1.82719 10.9283 2.1013 11.0598L10.0625 14.9373L13.9344 22.8938C14.0548 23.1508 14.2463 23.368 14.4862 23.5196C14.7261 23.6713 15.0044 23.7512 15.2882 23.7498C15.3313 23.7498 15.3744 23.7479 15.4175 23.7441C15.7203 23.7196 16.0082 23.6031 16.2429 23.4102C16.4775 23.2174 16.6475 22.9573 16.73 22.6651L22.1863 4.6707C22.1863 4.66601 22.1863 4.66132 22.1863 4.65664C22.2597 4.40066 22.2637 4.12976 22.1978 3.87174C22.1319 3.61373 21.9985 3.37791 21.8113 3.18851ZM15.2966 22.2357L15.2919 22.2488V22.2423L11.5363 14.5266L16.0363 10.0266C16.171 9.88484 16.245 9.69603 16.2425 9.50046C16.24 9.30488 16.1612 9.11803 16.0229 8.97973C15.8846 8.84143 15.6977 8.76262 15.5022 8.76012C15.3066 8.75761 15.1178 8.83161 14.976 8.96632L10.476 13.4663L2.75755 9.7107H2.75098H2.76411L20.75 4.24976L15.2966 22.2357Z" fill="black"/>
</svg>
