<svg width="24" height="24" viewBox="0 0 24 24" fill="none" xmlns="http://www.w3.org/2000/svg">
<path d="M8 16L16.7201 15.2733C19.4486 15.046 20.0611 14.45 20.3635 11.7289L21 6" stroke="black" stroke-width="1.5" stroke-linecap="round"/>
<path d="M6 6H6.5M22 6H19.5" stroke="black" stroke-width="1.5" stroke-linecap="round"/>
<path d="M9.5 5.25C9.08579 5.25 8.75 5.58579 8.75 6C8.75 6.41421 9.08579 6.75 9.5 6.75L9.5 5.25ZM16.5 6.75C16.9142 6.75 17.25 6.41421 17.25 6C17.25 5.58579 16.9142 5.25 16.5 5.25V6.75ZM12.25 9.5C12.25 9.91421 12.5858 10.25 13 10.25C13.4142 10.25 13.75 9.91421 13.75 9.5H12.25ZM13.75 2.5C13.75 2.08579 13.4142 1.75 13 1.75C12.5858 1.75 12.25 2.08579 12.25 2.5H13.75ZM9.5 6.75L16.5 6.75V5.25L9.5 5.25L9.5 6.75ZM13.75 9.5L13.75 2.5H12.25L12.25 9.5H13.75Z" fill="black"/>
<circle cx="6" cy="20" r="2" stroke="black" stroke-width="1.5"/>
<circle cx="17" cy="20" r="2" stroke="black" stroke-width="1.5"/>
<path d="M8 20L15 20" stroke="black" stroke-width="1.5" stroke-linecap="round"/>
<path d="M7.93852 15.0765L7.21218 15.2634L7.93852 15.0765ZM4.96326 3.51493L5.68959 3.32801L4.96326 3.51493ZM2 1.25C1.58579 1.25 1.25 1.58579 1.25 2C1.25 2.41421 1.58579 2.75 2 2.75L2 1.25ZM7.58824 16.7616L6.99457 16.3032L7.58824 16.7616ZM6.03846 17.5417C5.78534 17.8695 5.84593 18.3405 6.17381 18.5937C6.50168 18.8468 6.97267 18.7862 7.2258 18.4583L6.03846 17.5417ZM8.66485 14.8896L5.68959 3.32801L4.23692 3.70184L7.21218 15.2634L8.66485 14.8896ZM2.966 1.25L2 1.25L2 2.75H2.966V1.25ZM5.68959 3.32801C5.37188 2.09343 4.23948 1.25 2.966 1.25V2.75C3.58189 2.75 4.09639 3.15576 4.23692 3.70184L5.68959 3.32801ZM6.99457 16.3032L6.03846 17.5417L7.2258 18.4583L8.18191 17.2199L6.99457 16.3032ZM7.21218 15.2634C7.30429 15.6213 7.22665 16.0026 6.99457 16.3032L8.18191 17.2199C8.69376 16.5569 8.87346 15.7002 8.66485 14.8896L7.21218 15.2634Z" fill="black"/>
</svg>
