<svg width="25" height="24" viewBox="0 0 25 24" fill="none" xmlns="http://www.w3.org/2000/svg">
<path d="M8.5 16H15.7632C20.2508 16 20.9333 13.1808 21.761 9.06908C21.9998 7.88311 22.1192 7.29013 21.8321 6.89507C21.664 6.66386 21.4059 6.56796 21 6.52819M6.5 6.5H8" stroke="black" stroke-width="1.5" stroke-linecap="round"/>
<path d="M11.515 2.38661C12.5876 1.74692 13.5238 2.00471 14.0863 2.41534C14.3169 2.58371 14.4322 2.66789 14.5 2.66789C14.5678 2.66789 14.6831 2.58371 14.9137 2.41534C15.4762 2.00471 16.4124 1.74692 17.485 2.38661C18.8928 3.22614 19.2113 5.99578 15.9642 8.33242C15.3457 8.77747 15.0365 9 14.5 9C13.9635 9 13.6543 8.77747 13.0358 8.33242C9.78869 5.99578 10.1072 3.22614 11.515 2.38661Z" stroke="black" stroke-width="1.5" stroke-linecap="round"/>
<path d="M7.766 16.1541C7.85111 16.5595 8.24873 16.8191 8.6541 16.734C9.05948 16.6489 9.31911 16.2513 9.234 15.8459L7.766 16.1541ZM5.87873 3.51493L6.61273 3.36082L6.6098 3.34686L6.60634 3.33303L5.87873 3.51493ZM3 1.25C2.58579 1.25 2.25 1.58579 2.25 2C2.25 2.41421 2.58579 2.75 3 2.75V1.25ZM9.234 15.8459L6.61273 3.36082L5.14473 3.66903L7.766 16.1541L9.234 15.8459ZM3.93845 1.25L3 1.25V2.75H3.93845V1.25ZM6.60634 3.33303C6.30029 2.10882 5.20033 1.25 3.93845 1.25V2.75C4.51203 2.75 5.01201 3.14037 5.15113 3.69683L6.60634 3.33303Z" fill="black"/>
<path d="M9.38 16H8.96857C7.60522 16 6.5 17.1513 6.5 18.5714C6.5 18.8081 6.6842 19 6.91143 19L18 19" stroke="black" stroke-width="1.5" stroke-linecap="round" stroke-linejoin="round"/>
<circle cx="11" cy="20.5" r="1.5" stroke="black" stroke-width="1.5"/>
<circle cx="18" cy="20.5" r="1.5" stroke="black" stroke-width="1.5"/>
</svg>
