<svg width="22" height="22" viewBox="0 0 22 22" fill="none" xmlns="http://www.w3.org/2000/svg">
<circle cx="11" cy="10.9999" r="9.16667" stroke="black" stroke-width="1.5"/>
<path d="M11.75 6.4165C11.75 6.00229 11.4142 5.6665 11 5.6665C10.5858 5.6665 10.25 6.00229 10.25 6.4165H11.75ZM12.9053 11.8445C12.6124 11.5516 12.1376 11.5516 11.8447 11.8445C11.5518 12.1374 11.5518 12.6123 11.8447 12.9052L12.9053 11.8445ZM13.2197 14.2802C13.5126 14.5731 13.9874 14.5731 14.2803 14.2802C14.5732 13.9873 14.5732 13.5124 14.2803 13.2195L13.2197 14.2802ZM10.25 6.4165V9.62484H11.75V6.4165H10.25ZM11.8447 12.9052L13.2197 14.2802L14.2803 13.2195L12.9053 11.8445L11.8447 12.9052ZM11.625 10.9998C11.625 11.345 11.3452 11.6248 11 11.6248V13.1248C12.1736 13.1248 13.125 12.1734 13.125 10.9998H11.625ZM11 11.6248C10.6548 11.6248 10.375 11.345 10.375 10.9998H8.875C8.875 12.1734 9.82639 13.1248 11 13.1248V11.6248ZM10.375 10.9998C10.375 10.6547 10.6548 10.3748 11 10.3748V8.87484C9.82639 8.87484 8.875 9.82623 8.875 10.9998H10.375ZM11 10.3748C11.3452 10.3748 11.625 10.6547 11.625 10.9998H13.125C13.125 9.82623 12.1736 8.87484 11 8.87484V10.3748Z" fill="black"/>
</svg>
