<svg width="24" height="24" viewBox="0 0 24 24" fill="none" xmlns="http://www.w3.org/2000/svg">
<path d="M21.2652 13.9126L21.7228 13.3184L21.7228 13.3184L21.2652 13.9126ZM22.6543 16.8691L22.072 16.3965L22.6543 16.8691ZM20.7739 17.25C20.3597 17.25 20.0239 17.5858 20.0239 18C20.0239 18.4142 20.3597 18.75 20.7739 18.75V17.25ZM19.0675 12.2531C18.6549 12.2157 18.2902 12.5199 18.2529 12.9324C18.2156 13.345 18.5198 13.7096 18.9323 13.7469L19.0675 12.2531ZM17.9999 10.25C17.5857 10.25 17.2499 10.5858 17.2499 11C17.2499 11.4142 17.5857 11.75 17.9999 11.75V10.25ZM17.9999 5.25C17.5857 5.25 17.2499 5.58579 17.2499 6C17.2499 6.41421 17.5857 6.75 17.9999 6.75V5.25ZM20.8076 14.5068C21.2272 14.8299 21.717 15.1397 22.0393 15.5477C22.1873 15.7351 22.2402 15.8758 22.2486 15.9752C22.255 16.051 22.2442 16.1844 22.072 16.3965L23.2367 17.3418C23.6122 16.8791 23.7874 16.3714 23.7432 15.8489C23.7011 15.3499 23.4668 14.935 23.2163 14.6179C22.7417 14.0171 21.9893 13.5235 21.7228 13.3184L20.8076 14.5068ZM22.072 16.3965C21.5766 17.0069 21.1734 17.25 20.7739 17.25V18.75C21.873 18.75 22.6618 18.0501 23.2367 17.3418L22.072 16.3965ZM18.9323 13.7469C19.5726 13.8049 20.2173 14.0522 20.8076 14.5068L21.7228 13.3184C20.9185 12.699 20.006 12.338 19.0675 12.2531L18.9323 13.7469ZM19.7499 8.5C19.7499 9.4665 18.9664 10.25 17.9999 10.25V11.75C19.7948 11.75 21.2499 10.2949 21.2499 8.5H19.7499ZM17.9999 6.75C18.9664 6.75 19.7499 7.5335 19.7499 8.5H21.2499C21.2499 6.70507 19.7948 5.25 17.9999 5.25V6.75Z" fill="#000"/>
<path d="M2.73458 13.9126L2.27699 13.3184L2.27699 13.3184L2.73458 13.9126ZM1.34548 16.8691L1.92782 16.3965H1.92782L1.34548 16.8691ZM3.2259 18.75C3.64011 18.75 3.9759 18.4142 3.9759 18C3.9759 17.5858 3.64011 17.25 3.2259 17.25V18.75ZM5.06751 13.7469C5.48004 13.7096 5.78421 13.345 5.74689 12.9324C5.70957 12.5199 5.34489 12.2157 4.93236 12.2531L5.06751 13.7469ZM5.49994 11.75C5.91415 11.75 6.24994 11.4142 6.24994 11C6.24994 10.5858 5.91415 10.25 5.49994 10.25V11.75ZM5.49994 6.75C5.91415 6.75 6.24994 6.41421 6.24994 6C6.24994 5.58579 5.91415 5.25 5.49994 5.25V6.75ZM2.27699 13.3184C2.01055 13.5235 1.25808 14.0171 0.78348 14.6179C0.532997 14.935 0.298758 15.3499 0.256585 15.8489C0.212418 16.3714 0.387594 16.8791 0.763151 17.3418L1.92782 16.3965C1.75565 16.1844 1.74485 16.051 1.75126 15.9752C1.75966 15.8758 1.81254 15.7351 1.96052 15.5477C2.28284 15.1397 2.77264 14.8299 3.19218 14.5068L2.27699 13.3184ZM0.763151 17.3418C1.338 18.0501 2.1268 18.75 3.2259 18.75V17.25C2.82639 17.25 2.42321 17.0069 1.92782 16.3965L0.763151 17.3418ZM4.93236 12.2531C3.99384 12.338 3.08129 12.699 2.27699 13.3184L3.19218 14.5068C3.78254 14.0522 4.42721 13.8049 5.06751 13.7469L4.93236 12.2531ZM2.24994 8.5C2.24994 10.2949 3.70501 11.75 5.49994 11.75V10.25C4.53344 10.25 3.74994 9.4665 3.74994 8.5H2.24994ZM5.49994 5.25C3.70501 5.25 2.24994 6.70507 2.24994 8.5H3.74994C3.74994 7.5335 4.53344 6.75 5.49994 6.75V5.25Z" fill="#000"/>
<path d="M8.08368 15.1112L7.68924 14.4733V14.4733L8.08368 15.1112ZM15.9161 15.1112L16.3105 14.4733V14.4733L15.9161 15.1112ZM6.01458 18.6474L5.48709 19.1806H5.48709L6.01458 18.6474ZM17.9852 18.6474L17.4577 18.1143L17.9852 18.6474ZM8.47812 15.7491C10.6325 14.417 13.3673 14.417 15.5216 15.7491L16.3105 14.4733C13.6727 12.8422 10.327 12.8422 7.68924 14.4733L8.47812 15.7491ZM8.81551 20.75H15.1842V19.25H8.81551V20.75ZM6.54206 18.1143C6.24777 17.8231 6.24416 17.6527 6.25169 17.5812C6.26364 17.4676 6.34372 17.2859 6.58871 17.0368C7.09824 16.5189 7.88612 16.1152 8.47812 15.7491L7.68924 14.4733C7.25947 14.739 6.19693 15.2962 5.51943 15.9849C5.1709 16.3391 4.8233 16.8221 4.75993 17.4242C4.69213 18.0683 4.96553 18.6646 5.48709 19.1806L6.54206 18.1143ZM15.5216 15.7491C16.1136 16.1152 16.9015 16.5189 17.411 17.0368C17.656 17.2859 17.7361 17.4676 17.7481 17.5812C17.7556 17.6527 17.752 17.8231 17.4577 18.1143L18.5127 19.1806C19.0342 18.6646 19.3076 18.0683 19.2398 17.4242C19.1765 16.8221 18.8289 16.3391 18.4803 15.9849C17.8028 15.2962 16.7403 14.739 16.3105 14.4733L15.5216 15.7491ZM17.4577 18.1143C16.7252 18.839 16.017 19.25 15.1842 19.25V20.75C16.5837 20.75 17.651 20.033 18.5127 19.1806L17.4577 18.1143ZM5.48709 19.1806C6.34872 20.033 7.41605 20.75 8.81551 20.75V19.25C7.98275 19.25 7.2746 18.839 6.54206 18.1143L5.48709 19.1806Z" fill="#000"/>
<path d="M15.4999 7.5C15.4999 9.433 13.9329 11 11.9999 11C10.0669 11 8.49988 9.433 8.49988 7.5C8.49988 5.567 10.0669 4 11.9999 4C13.9329 4 15.4999 5.567 15.4999 7.5Z" stroke="#000" stroke-width="1.5"/>
</svg>
