<?xml version="1.0" encoding="UTF-8"?>
<svg xmlns="http://www.w3.org/2000/svg" version="1.1" width="200" height="200" viewBox="0 0 200 200"><rect x="0" y="0" width="200" height="200" fill="#ffffff"/><g transform="scale(9.524)"><g transform="translate(0.000,0.000)"><path fill-rule="evenodd" d="M9 0L9 1L8 1L8 3L9 3L9 4L8 4L8 8L6 8L6 9L4 9L4 8L3 8L3 9L4 9L4 10L6 10L6 11L7 11L7 10L8 10L8 11L9 11L9 10L8 10L8 8L9 8L9 9L11 9L11 8L13 8L13 4L12 4L12 3L13 3L13 2L12 2L12 1L13 1L13 0L11 0L11 2L12 2L12 3L11 3L11 4L12 4L12 5L11 5L11 6L10 6L10 7L9 7L9 4L10 4L10 0ZM11 6L11 7L12 7L12 6ZM0 8L0 9L1 9L1 11L0 11L0 12L1 12L1 13L2 13L2 12L3 12L3 13L7 13L7 12L5 12L5 11L3 11L3 10L2 10L2 8ZM14 8L14 10L12 10L12 11L11 11L11 10L10 10L10 11L11 11L11 12L10 12L10 14L9 14L9 12L8 12L8 15L11 15L11 18L10 18L10 17L8 17L8 18L9 18L9 19L8 19L8 21L9 21L9 19L10 19L10 20L11 20L11 21L13 21L13 20L15 20L15 19L13 19L13 18L12 18L12 16L14 16L14 17L15 17L15 18L16 18L16 19L17 19L17 20L16 20L16 21L19 21L19 20L18 20L18 19L17 19L17 18L16 18L16 17L17 17L17 16L18 16L18 17L19 17L19 18L20 18L20 20L21 20L21 14L19 14L19 13L21 13L21 12L20 12L20 10L21 10L21 9L20 9L20 8L18 8L18 9L17 9L17 8ZM6 9L6 10L7 10L7 9ZM15 9L15 10L14 10L14 11L12 11L12 12L11 12L11 13L12 13L12 14L11 14L11 15L13 15L13 14L14 14L14 16L15 16L15 13L16 13L16 12L17 12L17 11L18 11L18 13L17 13L17 14L16 14L16 15L17 15L17 14L18 14L18 13L19 13L19 9L18 9L18 10L17 10L17 9ZM12 12L12 13L13 13L13 12ZM14 12L14 13L15 13L15 12ZM18 15L18 16L20 16L20 15ZM11 18L11 20L13 20L13 19L12 19L12 18ZM0 0L0 7L7 7L7 0ZM1 1L1 6L6 6L6 1ZM2 2L2 5L5 5L5 2ZM21 0L14 0L14 7L21 7ZM20 1L15 1L15 6L20 6ZM19 2L16 2L16 5L19 5ZM0 21L7 21L7 14L0 14ZM1 20L6 20L6 15L1 15ZM2 19L5 19L5 16L2 16Z" fill="#000000"/></g></g></svg>
