<?xml version="1.0" encoding="UTF-8"?>
<svg xmlns="http://www.w3.org/2000/svg" version="1.1" width="200" height="200" viewBox="0 0 200 200"><rect x="0" y="0" width="200" height="200" fill="#ffffff"/><g transform="scale(9.524)"><g transform="translate(0.000,0.000)"><path fill-rule="evenodd" d="M9 0L9 1L8 1L8 3L9 3L9 4L8 4L8 8L6 8L6 9L5 9L5 10L6 10L6 11L5 11L5 12L3 12L3 11L4 11L4 8L3 8L3 9L2 9L2 8L0 8L0 9L1 9L1 10L0 10L0 12L1 12L1 13L5 13L5 12L6 12L6 13L8 13L8 15L10 15L10 16L9 16L9 17L8 17L8 18L9 18L9 19L8 19L8 21L10 21L10 19L11 19L11 18L12 18L12 19L13 19L13 20L11 20L11 21L13 21L13 20L15 20L15 21L19 21L19 20L18 20L18 18L20 18L20 20L21 20L21 14L17 14L17 13L21 13L21 12L20 12L20 11L19 11L19 10L20 10L20 8L18 8L18 9L17 9L17 8L14 8L14 10L12 10L12 11L11 11L11 10L10 10L10 9L11 9L11 8L13 8L13 4L12 4L12 3L13 3L13 2L12 2L12 1L13 1L13 0L11 0L11 2L12 2L12 3L11 3L11 4L12 4L12 5L11 5L11 6L10 6L10 7L9 7L9 4L10 4L10 0ZM11 6L11 7L12 7L12 6ZM8 8L8 10L7 10L7 9L6 9L6 10L7 10L7 11L6 11L6 12L7 12L7 11L8 11L8 12L9 12L9 8ZM15 9L15 10L14 10L14 11L12 11L12 12L11 12L11 11L10 11L10 15L13 15L13 14L14 14L14 16L12 16L12 18L13 18L13 19L16 19L16 20L17 20L17 19L16 19L16 18L17 18L17 17L19 17L19 16L20 16L20 15L18 15L18 16L17 16L17 17L16 17L16 18L15 18L15 17L14 17L14 16L15 16L15 13L16 13L16 12L19 12L19 11L17 11L17 9ZM18 9L18 10L19 10L19 9ZM1 10L1 12L2 12L2 11L3 11L3 10ZM12 12L12 13L11 13L11 14L12 14L12 13L13 13L13 12ZM14 12L14 13L15 13L15 12ZM16 14L16 15L17 15L17 14ZM10 16L10 17L9 17L9 18L10 18L10 17L11 17L11 16ZM0 0L0 7L7 7L7 0ZM1 1L1 6L6 6L6 1ZM2 2L2 5L5 5L5 2ZM21 0L14 0L14 7L21 7ZM20 1L15 1L15 6L20 6ZM19 2L16 2L16 5L19 5ZM0 21L7 21L7 14L0 14ZM1 20L6 20L6 15L1 15ZM2 19L5 19L5 16L2 16Z" fill="#000000"/></g></g></svg>
