<svg class="svg-icon" style="width: 1em; height: 1em;vertical-align: middle;fill: currentColor;overflow: hidden;" viewBox="0 0 1024 1024" version="1.1" xmlns="http://www.w3.org/2000/svg"><path d="M512 192a149.333333 149.333333 0 1 1-149.333333 149.333333 149.333333 149.333333 0 0 1 149.333333-149.333333m0-42.666667a192 192 0 1 0 192 192 192 192 0 0 0-192-192z" fill="#333333" /><path d="M815.36 834.346667a21.333333 21.333333 0 0 1-21.333333-21.333334 282.026667 282.026667 0 0 0-564.053334 0 21.333333 21.333333 0 0 1-42.666666 0 324.693333 324.693333 0 0 1 649.386666 0 21.333333 21.333333 0 0 1-21.333333 21.333334z" fill="#333333" /></svg>