<svg width="42" height="42" viewBox="0 0 42 42" fill="none" xmlns="http://www.w3.org/2000/svg">
<path d="M4.375 21.0005C4.375 13.1634 4.375 9.24484 6.80967 6.81016C9.24435 4.37549 13.1629 4.37549 21 4.37549C28.8371 4.37549 32.7557 4.37549 35.1903 6.81016C37.625 9.24484 37.625 13.1634 37.625 21.0005C37.625 28.8376 37.625 32.7561 35.1903 35.1908C32.7557 37.6255 28.8371 37.6255 21 37.6255C13.1629 37.6255 9.24435 37.6255 6.80967 35.1908C4.375 32.7561 4.375 28.8376 4.375 21.0005Z" stroke="black" stroke-width="2" stroke-linejoin="round"/>
<path d="M29.75 15.0005C30.3023 15.0005 30.75 14.5528 30.75 14.0005C30.75 13.4482 30.3023 13.0005 29.75 13.0005L29.75 15.0005ZM28 14.0005L28 15.0005L28 14.0005ZM20 37.6255C20 38.1778 20.4477 38.6255 21 38.6255C21.5523 38.6255 22 38.1778 22 37.6255H20ZM17.5 23.5005C16.9477 23.5005 16.5 23.9482 16.5 24.5005C16.5 25.0528 16.9477 25.5005 17.5 25.5005V23.5005ZM26.25 25.5005C26.8023 25.5005 27.25 25.0528 27.25 24.5005C27.25 23.9482 26.8023 23.5005 26.25 23.5005V25.5005ZM29.75 13.0005L28 13.0005L28 15.0005L29.75 15.0005L29.75 13.0005ZM20 21.0005V37.6255H22V21.0005H20ZM28 13.0005C26.3784 13.0005 25.0615 12.9984 24.0263 13.1375C22.9623 13.2806 22.0474 13.5892 21.318 14.3185L22.7322 15.7327C23.028 15.4369 23.4506 15.2329 24.2928 15.1197C25.1638 15.0026 26.3218 15.0005 28 15.0005V13.0005ZM22 21.0005C22 19.3223 22.0021 18.1643 22.1192 17.2933C22.2325 16.4511 22.4364 16.0285 22.7322 15.7327L21.318 14.3185C20.5887 15.0478 20.2801 15.9628 20.1371 17.0268C19.9979 18.062 20 19.3788 20 21.0005H22ZM17.5 25.5005H26.25V23.5005H17.5V25.5005Z" fill="black"/>
</svg>
