<svg width="42" height="42" viewBox="0 0 42 42" fill="none" xmlns="http://www.w3.org/2000/svg">
<path d="M4.375 21.0005C4.375 13.1634 4.375 9.24484 6.80967 6.81016C9.24435 4.37549 13.1629 4.37549 21 4.37549C28.8371 4.37549 32.7556 4.37549 35.1903 6.81016C37.625 9.24484 37.625 13.1634 37.625 21.0005C37.625 28.8376 37.625 32.7561 35.1903 35.1908C32.7556 37.6255 28.8371 37.6255 21 37.6255C13.1629 37.6255 9.24435 37.6255 6.80967 35.1908C4.375 32.7561 4.375 28.8376 4.375 21.0005Z" stroke="black" stroke-width="2" stroke-linecap="round" stroke-linejoin="round"/>
<path d="M21.3017 10.1436L21.2353 11.1414L21.3022 11.1459L21.3692 11.1414L21.3017 10.1436ZM21.3017 31.8569L21.3682 30.8591L21.3017 30.8546L21.2353 30.8591L21.3017 31.8569ZM28.7843 17.0416C28.9277 17.575 29.4762 17.8911 30.0096 17.7477C30.5429 17.6044 30.8591 17.0558 30.7157 16.5224L28.7843 17.0416ZM29.1466 27.1291L30.0464 27.5652L30.0697 27.5171L30.0878 27.4668L29.1466 27.1291ZM25.5259 22.213L24.5395 22.0486L25.5259 22.213ZM17.427 16.871C17.1428 17.3445 17.2964 17.9588 17.77 18.2429C18.2436 18.5271 18.8578 18.3735 19.142 17.9L17.427 16.871ZM21.3017 10.1436C21.3682 9.14585 21.3675 9.14581 21.3668 9.14577C21.3666 9.14575 21.3658 9.1457 21.3653 9.14567C21.3642 9.14559 21.3629 9.14552 21.3616 9.14543C21.3588 9.14526 21.3555 9.14506 21.3516 9.14485C21.3439 9.14441 21.3339 9.14389 21.3219 9.14333C21.2978 9.14221 21.2651 9.14096 21.2244 9.13997C21.1432 9.13799 21.0299 9.13705 20.8889 9.14041C20.6075 9.14712 20.2137 9.17102 19.7445 9.23879C18.8099 9.37375 17.5511 9.68633 16.283 10.4046C13.6698 11.8847 11.25 14.9549 11.25 21.0003H13.25C13.25 15.5863 15.3561 13.2281 17.2687 12.1448C18.2636 11.5813 19.2677 11.3284 20.0303 11.2183C20.4097 11.1635 20.723 11.1449 20.9366 11.1398C21.0432 11.1373 21.1243 11.1381 21.1757 11.1394C21.2013 11.14 21.2195 11.1407 21.2296 11.1412C21.2347 11.1414 21.2377 11.1416 21.2387 11.1417C21.2392 11.1417 21.2392 11.1417 21.2386 11.1416C21.2383 11.1416 21.2379 11.1416 21.2373 11.1416C21.2371 11.1416 21.2365 11.1415 21.2364 11.1415C21.2359 11.1415 21.2353 11.1414 21.3017 10.1436ZM11.25 21.0003C11.25 27.0456 13.6698 30.1158 16.283 31.5959C17.5511 32.3142 18.8099 32.6268 19.7445 32.7617C20.2137 32.8295 20.6075 32.8534 20.8889 32.8601C21.0299 32.8635 21.1432 32.8625 21.2244 32.8605C21.2651 32.8595 21.2978 32.8583 21.3219 32.8572C21.3339 32.8566 21.3439 32.8561 21.3516 32.8557C21.3555 32.8554 21.3588 32.8552 21.3616 32.8551C21.3629 32.855 21.3642 32.8549 21.3653 32.8548C21.3658 32.8548 21.3666 32.8548 21.3668 32.8547C21.3675 32.8547 21.3682 32.8547 21.3017 31.8569C21.2353 30.8591 21.2359 30.859 21.2364 30.859C21.2365 30.859 21.2371 30.859 21.2373 30.8589C21.2379 30.8589 21.2383 30.8589 21.2386 30.8589C21.2392 30.8588 21.2392 30.8588 21.2387 30.8589C21.2377 30.8589 21.2347 30.8591 21.2296 30.8593C21.2195 30.8598 21.2013 30.8605 21.1757 30.8611C21.1243 30.8624 21.0432 30.8632 20.9366 30.8607C20.723 30.8556 20.4097 30.837 20.0303 30.7823C19.2677 30.6721 18.2636 30.4192 17.2687 29.8557C15.3561 28.7724 13.25 26.4142 13.25 21.0003H11.25ZM21.3017 10.1436C21.3692 11.1414 21.3686 11.1414 21.3682 11.1414C21.368 11.1414 21.3676 11.1415 21.3673 11.1415C21.3668 11.1415 21.3664 11.1416 21.366 11.1416C21.3654 11.1416 21.3651 11.1416 21.3652 11.1416C21.3655 11.1416 21.3672 11.1415 21.3704 11.1413C21.3768 11.141 21.3891 11.1405 21.4069 11.1399C21.4425 11.1388 21.5002 11.1377 21.5772 11.1384C21.7314 11.1399 21.9617 11.1487 22.2472 11.1794C22.8207 11.2411 23.6013 11.3892 24.4302 11.7318C26.052 12.402 27.9227 13.8363 28.7843 17.0416L30.7157 16.5224C29.674 12.647 27.3205 10.7621 25.194 9.88338C24.1487 9.45141 23.1742 9.26758 22.461 9.1909C22.1032 9.15243 21.8073 9.14052 21.5962 9.13851C21.4905 9.13751 21.4056 9.13898 21.3445 9.14089C21.3139 9.14185 21.2892 9.14291 21.2707 9.14383C21.2615 9.14429 21.2538 9.14472 21.2477 9.14508C21.2447 9.14526 21.242 9.14542 21.2398 9.14556C21.2387 9.14563 21.2377 9.1457 21.2367 9.14576C21.2363 9.14579 21.2357 9.14583 21.2354 9.14584C21.2349 9.14588 21.2343 9.14592 21.3017 10.1436ZM28.2467 26.693C27.1585 28.9384 25.446 29.9684 23.9861 30.4507C23.2498 30.694 22.5801 30.7961 22.0966 30.8369C21.8559 30.8573 21.664 30.8622 21.5368 30.8623C21.4733 30.8624 21.4261 30.8612 21.3973 30.8602C21.3829 30.8597 21.3731 30.8593 21.3681 30.859C21.3657 30.8589 21.3644 30.8588 21.3644 30.8588C21.3644 30.8588 21.3647 30.8589 21.3653 30.8589C21.3657 30.8589 21.3661 30.8589 21.3665 30.859C21.3668 30.859 21.3672 30.859 21.3673 30.859C21.3677 30.859 21.3682 30.8591 21.3017 31.8569C21.2353 32.8547 21.2358 32.8547 21.2363 32.8547C21.2365 32.8547 21.237 32.8548 21.2374 32.8548C21.2382 32.8548 21.2391 32.8549 21.2401 32.855C21.242 32.8551 21.2443 32.8552 21.2468 32.8554C21.252 32.8557 21.2585 32.856 21.2663 32.8564C21.2819 32.8572 21.3026 32.8582 21.3282 32.859C21.3794 32.8608 21.4502 32.8624 21.5386 32.8623C21.7152 32.8622 21.963 32.8554 22.2651 32.8298C22.8674 32.7789 23.6967 32.6527 24.6135 32.3498C26.4598 31.7398 28.6697 30.4059 30.0464 27.5652L28.2467 26.693ZM30.0878 27.4668C30.5519 26.1734 30.7699 24.1304 29.6025 22.372C28.4092 20.5746 25.9924 19.4027 21.9052 19.4027V21.4027C25.6628 21.4027 27.2689 22.473 27.9363 23.4782C28.6296 24.5225 28.5458 25.8426 28.2053 26.7913L30.0878 27.4668ZM21.9052 20.4027C21.9052 19.4027 21.9048 19.4027 21.9043 19.4027C21.9042 19.4027 21.9037 19.4027 21.9034 19.4027C21.9027 19.4027 21.902 19.4027 21.9012 19.4027C21.8997 19.4027 21.8979 19.4027 21.8959 19.4027C21.892 19.4028 21.8871 19.4028 21.8813 19.4029C21.8699 19.403 21.8549 19.4033 21.8367 19.4038C21.8004 19.4048 21.7509 19.4067 21.6902 19.4104C21.569 19.4176 21.4012 19.4317 21.2019 19.4594C20.8084 19.514 20.2663 19.6251 19.7102 19.8568C19.1551 20.0881 18.5443 20.4572 18.0693 21.0509C17.5819 21.6602 17.2845 22.4487 17.2845 23.4199H19.2845C19.2845 22.8826 19.4397 22.5396 19.6311 22.3003C19.835 22.0454 20.1294 21.8488 20.4794 21.7029C20.8285 21.5575 21.1916 21.48 21.477 21.4403C21.6171 21.4209 21.7322 21.4114 21.809 21.4068C21.8473 21.4045 21.8756 21.4035 21.8923 21.403C21.9006 21.4028 21.906 21.4027 21.9082 21.4027C21.9093 21.4027 21.9097 21.4027 21.9092 21.4027C21.9089 21.4027 21.9085 21.4027 21.9078 21.4027C21.9075 21.4027 21.9071 21.4027 21.9066 21.4027C21.9064 21.4027 21.9061 21.4027 21.9059 21.4027C21.9056 21.4027 21.9052 21.4027 21.9052 20.4027ZM17.2845 23.4199C17.2845 25.2828 19.0814 26.8337 21.3017 26.8337V24.8337C19.9014 24.8337 19.2845 23.9137 19.2845 23.4199H17.2845ZM21.3017 26.8337C23.5273 26.8337 26.0235 25.3098 26.5123 22.3774L24.5395 22.0486C24.2345 23.8782 22.6969 24.8337 21.3017 24.8337V26.8337ZM26.5123 22.3774C26.8381 20.4225 26.6515 18.8116 26.0639 17.5557C25.4714 16.2894 24.5009 15.4514 23.401 15.021C21.2787 14.1905 18.6185 14.8851 17.427 16.871L19.142 17.9C19.7608 16.8686 21.3247 16.3562 22.6722 16.8835C23.3073 17.132 23.8831 17.6141 24.2524 18.4033C24.6265 19.2028 24.8171 20.3829 24.5395 22.0486L26.5123 22.3774Z" fill="black"/>
</svg>
